# xmcd
#
# Track frame offsets: 
#        150
#        9265
#        20665
#        32017
#        44697
#        67432
#        75612
#        87905
#        97730
#        113637
#        125185
#        134527
#        144020
#        155072
#
# Disc length: 2295 seconds
#
# Revision: 2
# Processed by: cddbd v1.5.2PL0 Copyright (c) Steve Scherf et al.
# Submitted via: ExactAudioCopy v0.95b4
#
DISCID=bb08f50e
DTITLE=Various Artist - Einsame Stunden (Hank Williams Hits auf Deuts
DTITLE=ch)
DYEAR=2005
DGENRE=Oldies
TTITLE0=Gerd Boettcher - Jambalaya
TTITLE1=Anna Lena - So kalt wie eine Winternacht
TTITLE2=Peter Beil - Vor deinem Fenster
TTITLE3=Heidi Bruehl - Geh' nicht fort
TTITLE4=Ricky Shayne - Ein Teil von Dir
TTITLE5=Greetje Kauffeld - Nur wer liebt, ist nie allein
TTITLE6=Louis Neefs - Schoene Navaja
TTITLE7=Rene Franke - Leb' wohl und auf wiedersehn
TTITLE8=Horst Winter - Halb soviel
TTITLE9=Knut Kiesewetter - Einsame Stunden
TTITLE10=Fred Bertelmann - Hey, Hallo Susanne
TTITLE11=Peter Alexander - Himmel ueber der Praerie
TTITLE12=Gerhard Wendland - Jambalaya
TTITLE13=Das Medium Terzett - Ein Loch ist im Eimer
EXTD=record label - Bear Family Record
EXTT0=
EXTT1=
EXTT2=
EXTT3=
EXTT4=
EXTT5=
EXTT6=
EXTT7=
EXTT8=
EXTT9=
EXTT10=
EXTT11=
EXTT12=
EXTT13=
PLAYORDER=
